PathFileType	4	(X/Y/Z)	C:\Users\Basilio\Documents\Thesis Gigler\squatting_fais\c3dfiles\041\SJ_pre3\markers_experimental.trc
DataRate	CameraRate	NumFrames	NumMarkers	Units	OrigDataRate	OrigDataStartFrame	OrigNumFrames
200.000000	200.000000	4	62	mm	200.000000	209	1679
Frame#	Time	FHD			LBHD			RBHD			C7			T10			CLAV			LSHO			LUUPA			LMUPA			LDUPA			LLEP			LMEP			LRAD			LUL			LRFIN			RSHO			RUPA1			RMUPA			RDUPA			RLEP			RMEP			RRAD			RUL			RUFIN			LASI			RASI			USACR			LSACR			RSACR			LTHI1			LTHI2			LTHI3			LTHI4			LLFC			LMFC			LTIB1			LTIB2			LTIB3			LTIB4			LLMAL			LMMAL			LHEE			LMT1			LMT2			LMT5			RTHI			RTHI2			RTHI3			RTHI4			RLFC			RMFC			RTIB1			RTIB2			RTIB3			RTIB4			RLMAL			RMMAL			RHEE			RMT1			RMT2			RMT5			*61			
		X1	Y1	Z1	X2	Y2	Z2	X3	Y3	Z3	X4	Y4	Z4	X5	Y5	Z5	X6	Y6	Z6	X7	Y7	Z7	X8	Y8	Z8	X9	Y9	Z9	X10	Y10	Z10	X11	Y11	Z11	X12	Y12	Z12	X13	Y13	Z13	X14	Y14	Z14	X15	Y15	Z15	X16	Y16	Z16	X17	Y17	Z17	X18	Y18	Z18	X19	Y19	Z19	X20	Y20	Z20	X21	Y21	Z21	X22	Y22	Z22	X23	Y23	Z23	X24	Y24	Z24	X25	Y25	Z25	X26	Y26	Z26	X27	Y27	Z27	X28	Y28	Z28	X29	Y29	Z29	X30	Y30	Z30	X31	Y31	Z31	X32	Y32	Z32	X33	Y33	Z33	X34	Y34	Z34	X35	Y35	Z35	X36	Y36	Z36	X37	Y37	Z37	X38	Y38	Z38	X39	Y39	Z39	X40	Y40	Z40	X41	Y41	Z41	X42	Y42	Z42	X43	Y43	Z43	X44	Y44	Z44	X45	Y45	Z45	X46	Y46	Z46	X47	Y47	Z47	X48	Y48	Z48	X49	Y49	Z49	X50	Y50	Z50	X51	Y51	Z51	X52	Y52	Z52	X53	Y53	Z53	X54	Y54	Z54	X55	Y55	Z55	X56	Y56	Z56	X57	Y57	Z57	X58	Y58	Z58	X59	Y59	Z59	X60	Y60	Z60	X61	Y61	Z61	X62	Y62	Z62	

210	1.045	-162.3471221923828	1640.013916015625	-933.0660400390627	-341.8047790527344	1691.7890625	-1012.275390625	-327.6831970214844	1677.774780273438	-859.4130859375002	-456.7949218750001	1527.180419921875	-958.7017211914065	-485.6726684570314	1202.125244140625	-963.4711914062502	-310.5046386718751	1461.411010742188	-954.4276123046877	-389.1421813964845	1520.651611328125	-1127.015014648438	-450.6468811035157	1385.50830078125	-1265.379028320313	-428.2641601562501	1340.971435546875	-1265.623291015625	-474.1433410644532	1333.679809570313	-1305.399169921875	-486.0437927246095	1287.79248046875	-1329.892822265625	-537.7974243164064	1247.155883789063	-1264.957885742188	-388.1028137207032	1090.84228515625	-1172.945068359375	-372.7595520019532	1053.39892578125	-1235.253051757813	-336.9012145996094	1073.135498046875	-1137.923461914063	-398.1308898925782	1509.16845703125	-789.4243774414065	-465.1961975097657	1360.128295898438	-635.1105346679689	-421.315399169922	1334.5009765625	-637.8895874023439	-448.296844482422	1300.85693359375	-599.0806884765626	-442.806121826172	1252.394653320313	-582.1876831054689	-512.7349243164064	1225.116943359375	-639.1101074218751	-406.3258666992189	1057.35693359375	-747.0952148437501	-359.7622375488282	1051.788940429688	-786.9165649414065	-376.8635253906251	1015.447875976563	-689.9694824218751	-298.1478271484376	1017.676696777344	-1070.952880859375	-313.1276550292969	1004.2177734375	-852.792663574219	-485.7815246582032	1087.869995117188	-967.6955566406252	-499.3214721679689	1062.854248046875	-996.058776855469	-507.0494079589845	1062.246459960938	-942.6080322265627	-415.4730224609376	822.123229980469	-1169.385131835938	-377.2707519531251	746.8254394531251	-1174.890014648438	-330.4306640625001	750.9885864257814	-1162.375	-404.1785278320314	691.4290771484376	-1169.642333984375	-375.2607116699219	513.9368286132814	-1178.965087890625	-371.0483093261719	479.4375000000001	-1064.407958984375	-347.9271545410157	316.2590026855469	-1149.756469726563	-391.4838867187501	283.9394836425782	-1222.276977539063	-356.3819885253907	275.8042907714844	-1194.5263671875	-359.4086914062501	194.0456695556641	-1172.857421875	-416.0153808593751	102.1089477539063	-1232.236328125	-378.5816345214844	104.5958786010742	-1149.008422851563	-473.9871520996095	51.76917648315431	-1199.650390625	-258.0506591796876	61.71267318725587	-1166.439086914063	-250.6138458251954	63.29237747192384	-1211.124389648438	-288.9834899902344	37.5932731628418	-1268.341796875	-441.1522216796876	763.3356933593751	-765.0057373046876	-404.1414794921876	708.5152587890626	-755.0077514648439	-371.0325622558594	709.0283813476564	-758.2351074218751	-432.5715332031251	629.3222045898439	-764.9338989257814	-427.9425659179689	502.4026794433595	-751.0028076171876	-403.4404296875001	470.1228332519532	-864.793884277344	-377.2369079589844	341.2664184570313	-736.3831176757814	-450.3234252929689	258.3253479003907	-715.5391845703126	-403.3742065429689	261.3295288085938	-713.1594848632814	-373.1335449218751	213.7939758300782	-732.5155639648439	-412.861785888672	93.98854827880861	-705.4974365234376	-381.7214965820313	102.6596374511719	-784.5936279296877	-465.4321289062501	49.03136825561525	-753.3079833984376	-248.0364990234376	55.1694679260254	-753.8172607421876	-247.7778320312501	59.2451858520508	-701.2521362304689	-292.2070617675782	36.74146270751954	-653.4467773437501	-4216.981933593751	853.1653442382815	-3944.791015625001	
211	1.05	-161.813217163086	1639.029663085938	-932.977233886719	-340.8727416992188	1691.697143554688	-1012.3349609375	-326.7398681640626	1677.634521484375	-859.3613891601565	-456.4510498046876	1527.446899414063	-958.7216796875002	-485.918670654297	1202.28125	-963.403991699219	-310.4266357421876	1461.396362304688	-954.3628540039065	-388.9173278808595	1520.709716796875	-1127.034545898438	-450.7272338867189	1385.595336914063	-1265.298583984375	-428.3898010253907	1341.023559570313	-1265.540771484375	-474.3055114746095	1333.79345703125	-1305.299072265625	-486.2883300781251	1287.932250976563	-1329.821899414063	-538.0356445312501	1247.359985351563	-1264.810424804688	-388.4622802734376	1090.803955078125	-1172.923217773438	-373.3132324218751	1053.393798828125	-1235.145629882813	-337.3714599609376	1073.175048828125	-1137.8291015625	-397.897918701172	1509.196166992188	-789.330993652344	-465.2070312500001	1360.362060546875	-635.0634155273439	-421.542205810547	1334.567138671875	-637.8769531250001	-448.337127685547	1301.050048828125	-599.0934448242189	-442.9611206054689	1252.6279296875	-582.1333618164064	-512.9406738281251	1225.347900390625	-639.0096435546876	-406.8640747070314	1057.454711914063	-747.0521240234376	-360.3158874511719	1051.819580078125	-786.8928222656252	-377.5198059082032	1015.462036132813	-689.8799438476564	-298.5256958007813	1017.658020019531	-1070.909057617188	-313.7207641601563	1004.236206054688	-852.7462158203127	-486.1188964843751	1087.91845703125	-967.6431274414065	-499.3948974609376	1062.81494140625	-996.0075683593752	-507.425994873047	1062.358154296875	-942.6016235351565	-415.8870239257814	822.1025390625002	-1169.289672851563	-377.5591430664063	746.7732543945314	-1174.855712890625	-330.6488037109376	750.9767456054689	-1162.29736328125	-404.3693237304689	691.3912963867189	-1169.669677734375	-375.1522216796876	513.9461059570314	-1178.980712890625	-371.1638488769532	479.3996582031251	-1064.361206054688	-347.9590148925782	316.2300720214844	-1149.662475585938	-391.1378784179689	283.6835937500001	-1222.325317382813	-356.5022888183594	276.1052246093751	-1194.445922851563	-359.5184936523438	194.0452270507813	-1172.783203125	-416.0391235351564	102.0958786010742	-1232.348266601563	-378.5798645019532	104.6660842895508	-1149.093139648438	-474.0312500000001	51.73471450805665	-1199.71533203125	-258.1114196777344	61.8320999145508	-1166.3642578125	-250.623275756836	63.364070892334	-1210.992309570313	-289.7071228027344	37.55754089355469	-1267.815307617188	-441.5584716796876	763.2901000976564	-764.9538574218751	-404.650115966797	708.5133666992189	-754.9443969726564	-371.3124389648438	708.9805908203126	-758.2857055664064	-432.9226379394532	629.2894897460939	-764.9530029296876	-428.072479248047	502.3999938964845	-750.9688720703126	-403.6526489257814	470.1712646484376	-864.7857666015627	-377.2843322753907	341.2581481933594	-736.4165039062501	-450.4000549316407	258.2975463867188	-715.4769897460939	-403.4135742187501	261.3499145507813	-713.1690673828126	-373.2123413085938	213.7863769531251	-732.5106811523439	-412.9224243164064	94.00820159912111	-705.4407958984376	-381.7077026367188	102.6313934326172	-784.5874633789065	-465.4367980957032	49.01848220825197	-753.3259887695314	-248.0364685058594	55.21213150024415	-753.8154907226564	-247.8379974365235	59.26012420654298	-701.2611083984376	-292.1997070312501	36.75481414794923	-653.4572753906251	-4216.986816406251	853.1790771484377	-3944.642822265626	
212	1.055	-160.7142333984375	1637.73486328125	-932.9606933593752	-339.6710205078126	1691.585571289063	-1012.305114746094	-325.6002197265626	1677.438110351563	-859.2158813476565	-456.0441284179689	1527.683349609375	-958.705993652344	-486.131805419922	1202.447021484375	-963.3650512695315	-310.3087158203126	1461.175048828125	-954.3394775390627	-388.6851806640626	1520.711791992188	-1126.990600585938	-450.7441711425782	1385.618774414063	-1265.205322265625	-428.4528198242189	1341.04833984375	-1265.44482421875	-474.4053955078126	1333.847290039063	-1305.20263671875	-486.5564270019532	1288.052734375	-1329.731811523438	-538.2236938476564	1247.5595703125	-1264.680053710938	-388.7972717285157	1090.828125	-1172.840576171875	-373.7028808593751	1053.372192382813	-1235.093994140625	-337.8796386718751	1073.111083984375	-1137.772338867188	-397.5984497070314	1509.286987304688	-789.3771972656252	-465.1613769531251	1360.605712890625	-635.0192260742189	-421.7021484375001	1334.723266601563	-637.7546997070314	-448.5747985839845	1301.251220703125	-598.9840087890626	-443.3872375488282	1252.852661132813	-581.8836059570314	-513.2180175781251	1225.598754882813	-638.8950805664064	-407.3378295898439	1057.58203125	-746.9561767578126	-361.1283264160157	1051.841430664063	-786.7668457031252	-377.9164123535157	1015.627624511719	-689.7991943359376	-298.9386901855469	1017.7197265625	-1070.876098632813	-314.4294128417969	1004.216247558594	-852.6029052734377	-486.4802551269532	1087.943359375	-967.5806884765627	-499.5970153808595	1062.8447265625	-995.9373779296877	-507.7562255859376	1062.4462890625	-942.4776000976565	-416.2409667968751	822.048278808594	-1169.213012695313	-377.7696533203126	746.7047729492189	-1174.859497070313	-330.9257507324219	750.9240112304689	-1162.218383789063	-404.5768127441407	691.3212280273439	-1169.6884765625	-375.1012878417969	513.9303588867189	-1178.950317382813	-371.3117675781251	479.3835449218751	-1064.34423828125	-348.0298461914063	316.2313232421876	-1149.61572265625	-391.0902099609376	283.6153869628907	-1222.391967773438	-356.4414367675782	275.9070434570313	-1194.4892578125	-359.5989990234376	194.1165924072266	-1172.775390625	-416.0794067382814	102.0434036254883	-1232.412231445313	-378.7038574218751	104.7061614990235	-1149.155639648438	-474.0768127441407	51.7115821838379	-1199.7734375	-257.8070983886719	61.72473144531251	-1166.168701171875	-250.6133728027344	63.59268951416017	-1210.806640625	-289.0659484863282	37.29081726074219	-1267.514038085938	-441.9493103027345	763.2543945312501	-764.9071655273439	-404.9598999023439	708.4761962890626	-755.0473022460939	-371.6476440429688	708.8197021484376	-758.5984497070314	-433.2878723144532	629.2786254882814	-764.8899536132814	-428.3089904785157	502.4024047851564	-750.9097290039064	-403.8630981445314	470.1980895996095	-864.806091308594	-377.3535461425782	341.2985839843751	-736.3670654296876	-450.5152893066407	258.2549133300782	-715.4293212890626	-403.4707336425782	261.3521423339844	-713.1374511718751	-373.2654418945313	213.7960357666016	-732.5056152343751	-412.9259338378907	93.9600067138672	-705.4247436523439	-381.7393493652344	102.6805725097657	-784.592956542969	-465.4456176757814	49.02932357788087	-753.2719726562501	-248.0579986572266	55.22837066650392	-753.8346557617189	-247.8491821289063	59.26273727416994	-701.2540893554689	-292.2290954589844	36.74511718750001	-653.4755859375001	-4217.559082031251	853.286804199219	-3944.749755859376	
213	1.06	-159.818359375	1636.871704101563	-932.9407958984377	-338.5152587890626	1691.429321289063	-1012.315979003906	-324.9780578613282	1677.320556640625	-859.2080688476565	-455.6413574218751	1527.943237304688	-958.655944824219	-486.3466796875001	1202.583740234375	-963.341491699219	-310.1440124511719	1461.068237304688	-954.323913574219	-388.4158630371095	1520.704345703125	-1127.006958007813	-450.7651367187501	1385.69384765625	-1265.164306640625	-428.6278076171876	1341.160034179688	-1265.396118164063	-474.4690551757814	1333.953979492188	-1305.099731445313	-486.727020263672	1288.241577148438	-1329.644653320313	-538.4967041015626	1247.695068359375	-1264.6201171875	-389.0909729003907	1090.864868164063	-1172.746215820313	-374.1931152343751	1053.368286132813	-1234.995483398438	-338.2861022949219	1073.06103515625	-1137.740600585938	-397.2557678222657	1509.36669921875	-789.359069824219	-465.1839294433595	1360.775390625	-634.9072265625001	-421.7263488769532	1334.884887695313	-637.6838989257814	-448.7092895507814	1301.480712890625	-598.9408569335939	-443.6376037597657	1253.059204101563	-581.7486572265626	-513.4881591796876	1225.9052734375	-638.8280029296876	-407.9513244628907	1057.794799804688	-746.8486938476564	-361.4481811523438	1051.890014648438	-786.841247558594	-378.3728332519532	1015.859436035156	-689.7262573242189	-299.2404174804688	1017.785705566406	-1070.877685546875	-314.8956909179688	1004.120727539063	-852.297302246094	-486.7879028320314	1088.02685546875	-967.493835449219	-500.222625732422	1063.011108398438	-995.8542480468752	-508.1366271972657	1062.565795898438	-942.4665527343752	-416.5454406738282	822.0234985351565	-1169.167358398438	-378.0207824707032	746.6643066406251	-1174.828002929688	-331.2078552246094	750.9528198242189	-1162.147705078125	-404.8033752441407	691.2844238281251	-1169.770874023438	-375.0651855468751	513.9197998046876	-1178.955444335938	-371.3688659667969	479.373992919922	-1064.330200195313	-348.1909179687501	316.1826171875001	-1149.460693359375	-391.4227294921876	284.0690307617188	-1222.339599609375	-356.4707641601563	275.8651428222657	-1194.444091796875	-359.6425476074219	194.1165313720704	-1172.766845703125	-416.1035766601564	102.0212020874024	-1232.514526367188	-378.7897644042969	104.7824020385742	-1149.214721679688	-474.1656494140626	51.68193817138673	-1199.76806640625	-258.0313720703126	61.73728942871095	-1166.1572265625	-250.5275421142579	63.75001144409181	-1210.663940429688	-289.6939392089844	37.79050445556641	-1267.468994140625	-442.4812927246095	763.3314819335939	-764.8717041015626	-405.5849914550782	708.4934692382814	-754.9099731445314	-372.2687683105469	708.9941406250001	-758.0487060546876	-433.5757141113282	629.2539062500001	-764.9455566406251	-428.6716918945314	502.3981323242189	-750.7955322265626	-404.1670532226564	470.2219238281251	-864.7385253906252	-377.4920043945313	341.3248291015626	-736.3814697265626	-450.5725708007814	258.2191467285157	-715.3884277343751	-403.5698852539064	261.3308715820313	-713.1268310546876	-373.2878723144532	213.8218841552735	-732.4877319335939	-412.9255981445314	93.98067474365236	-705.3775634765626	-381.5423583984376	102.7813568115235	-784.8641357421877	-465.457977294922	49.02070236206056	-753.2620849609376	-248.0402069091797	55.25951385498048	-753.8134765625001	-247.871322631836	59.32217025756837	-701.2645263671876	-292.2721252441407	36.70872879028321	-653.5095214843751	-4216.867187500001	853.2148437500002	-3944.666503906251	
